<?xml version="1.0" encoding="UTF-8"?><svg id="a" xmlns="http://www.w3.org/2000/svg" viewBox="0 0 60 60"><defs><style>.b{fill:#f2f2f2;}</style></defs><path class="b" d="M30,55c-13.79,0-25-11.21-25-25S16.21,5,30,5s25,11.21,25,25-11.21,25-25,25Zm0-47.86c-12.61,0-22.86,10.26-22.86,22.86s10.26,22.86,22.86,22.86,22.86-10.26,22.86-22.86S42.61,7.14,30,7.14Z"/><path class="b" d="M23.8,23.59c0,1.83-1.49,3.32-3.32,3.32s-3.32-1.49-3.32-3.32,1.49-3.32,3.32-3.32,3.32,1.49,3.32,3.32"/><path class="b" d="M42.84,23.59c0,1.83-1.49,3.32-3.32,3.32s-3.32-1.49-3.32-3.32,1.49-3.32,3.32-3.32,3.32,1.49,3.32,3.32"/><path class="b" d="M30,45.53c-6.68,0-9.93-5.27-10.71-8.05-.18-.65,.2-1.33,.85-1.52,.66-.19,1.34,.19,1.53,.85,.07,.25,1.88,6.25,8.33,6.25s8.25-6,8.33-6.25c.19-.65,.87-1.03,1.53-.85,.65,.19,1.04,.86,.85,1.52-.78,2.78-4.02,8.05-10.7,8.05Z"/></svg>